<?xml version="1.0" encoding="UTF-8"?>
<!-- Generated by Pixelmator Pro 2.3.8 -->
<svg width="500" height="300" viewBox="0 0 500 300" xmlns="http://www.w3.org/2000/svg" xmlns:xlink="http://www.w3.org/1999/xlink">
    <g id="Group">
        <linearGradient id="linearGradient1" x1="295.263" y1="67.853" x2="420.865362" y2="213.653653" gradientUnits="userSpaceOnUse">
            <stop offset="1e-05" stop-color="#ff5000" stop-opacity="1"/>
            <stop offset="1" stop-color="#9b0000" stop-opacity="1"/>
        </linearGradient>
        <path id="Path" fill="url(#linearGradient1)" fill-rule="evenodd" stroke="none" d="M 493.449005 145.167007 C 493.449005 145.167007 460.196014 82.067993 378.592987 37.210999 C 321.449005 5.79599 265.200989 7.975006 233.382004 16.066986 C 183.197006 28.82901 141.276993 57.216003 141.276993 57.216003 C 141.276993 57.216003 146.046997 79.794998 173.972 72.955002 C 205.462006 65.242996 266.027008 34.39801 322.608002 60.399994 C 355.016998 75.294998 366.453003 132.798996 299.985992 122.213989 C 274.671997 119.039001 256.450012 135.235001 261.540985 152.843994 C 263.809998 160.679993 269.910004 152.427994 294.720001 158.179993 C 300.933014 159.623001 337.026001 171.237 344.453003 173.798996 C 364.825012 180.824005 375.548004 185.647003 401.619995 180.524002 C 445.678986 171.869003 470.739014 139.811005 493.449005 145.167007 Z"/>
        <linearGradient id="linearGradient2" x1="163.792" y1="74.9489" x2="330.399838" y2="75.598904" gradientUnits="userSpaceOnUse">
            <stop offset="1e-05" stop-color="#ff5000" stop-opacity="1"/>
            <stop offset="1" stop-color="#9b0000" stop-opacity="1"/>
        </linearGradient>
        <path id="path1" fill="url(#linearGradient2)" fill-rule="evenodd" stroke="none" d="M 330.408997 72.950989 C 327.480988 70.311005 324.125 68.001999 320.497986 66.264008 C 306.416992 59.518005 291.330994 56.195007 274.384003 56.108002 C 246.143005 55.959 219.203995 64.980011 197.557007 72.230011 C 188.988007 75.097992 181.585007 77.57901 175.117996 79.162994 C 171.171997 80.130997 167.404999 80.608002 163.917999 80.589996 C 163.867996 80.589996 163.817993 80.588989 163.770004 80.587006 C 166.576996 86.358002 174.399002 96.821991 193.606003 94.014999 C 221.067001 90 247.882004 75.119003 285.920013 71 C 301.332001 69.332001 316.920013 70.645996 330.408997 72.950989 Z"/>
        <linearGradient id="linearGradient3" x1="142.869" y1="116.869" x2="366.551115" y2="105.32594" gradientUnits="userSpaceOnUse">
            <stop offset="1e-05" stop-color="#ff2800" stop-opacity="1"/>
            <stop offset="1" stop-color="#9b0000" stop-opacity="1"/>
        </linearGradient>
        <path id="path2" fill="url(#linearGradient3)" fill-rule="evenodd" stroke="none" d="M 317.84201 91.522003 C 304.562988 91.45401 292.214996 93.044006 287.549988 94.05899 C 276.535004 96.462006 266.214996 100.328003 256.239014 104.06601 C 245.007996 108.274002 234.397995 112.247009 223.722 113.824997 C 227.102005 118.968002 234.332993 125.401001 248.903 123.272003 C 271.71701 119.936996 295.102997 93.807007 340.164001 100.43399 C 340.855988 99.190002 341.334991 97.869995 341.578003 96.473999 C 341.710999 95.710999 341.755005 94.919006 341.76001 94.115997 C 335.356995 92.472 327.235992 91.571991 317.84201 91.522003 Z"/>
        <linearGradient id="linearGradient4" x1="196.944" y1="91.9889" x2="340.502722" y2="92.54898" gradientUnits="userSpaceOnUse">
            <stop offset="1e-05" stop-color="#ff3900" stop-opacity="1"/>
            <stop offset="1" stop-color="#9b0000" stop-opacity="1"/>
        </linearGradient>
        <path id="path3" fill="url(#linearGradient4)" fill-rule="evenodd" stroke="none" d="M 301.102997 76.598999 C 296.039001 76.571991 291.10199 76.815002 286.43399 77.320999 C 265.441986 79.593994 248.212006 85.136002 231.548996 90.494995 C 219.649002 94.324005 208.360992 97.932007 196.912994 99.875 C 201.354996 104.837997 209.248993 109.549011 222.893997 107.553009 C 242.425003 104.699997 262.734009 93.014999 286.526001 87.822998 C 294.020996 86.188004 320.80899 83.05899 340.522003 87.328003 C 339.725006 85.100998 338.558014 82.855011 337.105011 80.669998 C 326.450989 78.450989 313.950012 76.666 301.102997 76.598999 Z"/>
        <linearGradient id="linearGradient5" x1="204.742" y1="232.148" x2="79.139497" y2="86.346488" gradientUnits="userSpaceOnUse">
            <stop offset="1e-05" stop-color="#158060" stop-opacity="1"/>
            <stop offset="1" stop-color="#00ff90" stop-opacity="1"/>
        </linearGradient>
        <path id="path4" fill="url(#linearGradient5)" fill-rule="evenodd" stroke="none" d="M 6.551 154.834 C 6.551 154.834 39.806999 217.931 121.410004 262.787994 C 178.552994 294.200989 234.798996 292.026001 266.617004 283.93399 C 316.803009 271.170013 358.726013 242.783005 358.726013 242.783005 C 358.726013 242.783005 353.955994 220.205994 326.026001 227.046005 C 294.540985 234.757996 233.975998 265.601013 177.393005 239.600998 C 144.985992 224.705994 133.548996 167.201996 200.016998 177.785004 C 225.330994 180.960007 243.552994 164.764008 238.459 147.156998 C 236.190994 139.320999 230.091995 147.572998 205.281998 141.819 C 199.070999 140.376007 162.979004 128.761993 155.548996 126.199997 C 135.173004 119.173004 124.453003 114.354004 98.380997 119.47699 C 54.320999 128.132004 29.261999 160.190002 6.551 154.834 Z"/>
        <linearGradient id="linearGradient6" x1="336.212" y1="225.05" x2="169.603162" y2="224.399992" gradientUnits="userSpaceOnUse">
            <stop offset="1e-05" stop-color="#15803d" stop-opacity="1"/>
            <stop offset="1" stop-color="#009e75" stop-opacity="1"/>
        </linearGradient>
        <path id="path5" fill="url(#linearGradient6)" fill-rule="evenodd" stroke="none" d="M 169.591995 227.048004 C 172.520996 229.690002 175.878006 231.998993 179.503998 233.737 C 193.585999 240.483002 208.671997 243.802002 225.615997 243.893005 C 253.858994 244.042007 280.798004 235.018997 302.442993 227.770996 C 311.014008 224.897995 318.415009 222.421997 324.884003 220.835999 C 328.828003 219.869995 332.596985 219.389008 336.082001 219.410995 C 336.13501 219.410995 336.181 219.412003 336.233002 219.416 C 333.424988 213.643005 325.604004 203.175003 306.394989 205.983994 C 278.934998 209.996994 252.117996 224.882004 214.082001 229.001007 C 198.669998 230.669006 183.082001 229.350998 169.591995 227.048004 Z"/>
        <linearGradient id="linearGradient7" x1="357.134" y1="183.13" x2="133.447882" y2="194.673216" gradientUnits="userSpaceOnUse">
            <stop offset="1e-05" stop-color="#00b34d" stop-opacity="1"/>
            <stop offset="1" stop-color="#007c67" stop-opacity="1"/>
        </linearGradient>
        <path id="path6" fill="url(#linearGradient7)" fill-rule="evenodd" stroke="none" d="M 182.160995 208.477005 C 195.438004 208.546997 207.787003 206.959 212.453003 205.942993 C 223.466995 203.537003 233.785995 199.671005 243.764008 195.929993 C 254.992996 191.727005 265.60199 187.753998 276.278992 186.169998 C 272.899994 181.031006 265.670013 174.598007 251.100006 176.727005 C 228.285995 180.061996 204.897003 206.195007 159.839996 199.567001 C 159.147003 200.811005 158.664993 202.130997 158.423004 203.526993 C 158.289001 204.292007 158.246002 205.080002 158.240005 205.882996 C 164.643997 207.526993 172.761993 208.427994 182.160995 208.477005 Z"/>
        <linearGradient id="linearGradient8" x1="303.058" y1="208.01" x2="159.501278" y2="207.449925" gradientUnits="userSpaceOnUse">
            <stop offset="1e-05" stop-color="#15803d" stop-opacity="1"/>
            <stop offset="1" stop-color="#007c67" stop-opacity="1"/>
        </linearGradient>
        <path id="path7" fill="url(#linearGradient8)" fill-rule="evenodd" stroke="none" d="M 198.901001 223.401993 C 203.964005 223.429001 208.901001 223.186005 213.567993 222.679993 C 234.561996 220.406998 251.789993 214.865005 268.450989 209.503998 C 280.351013 205.675003 291.639008 202.069 303.088989 200.123993 C 298.648987 195.158997 290.753998 190.451996 277.105988 192.445999 C 257.576996 195.300995 237.270004 206.985992 213.475006 212.175995 C 205.981995 213.807999 179.195007 216.942001 159.479004 212.673004 C 160.278 214.897995 161.444 217.145004 162.893997 219.330994 C 173.552002 221.550003 186.052002 223.332993 198.901001 223.401993 Z"/>
    </g>
</svg>
