<?xml version="1.0" encoding="UTF-8"?>
<!-- Generated by Pixelmator Pro 2.3.8 -->
<svg width="1500" height="300" viewBox="0 0 1500 300" xmlns="http://www.w3.org/2000/svg" xmlns:xlink="http://www.w3.org/1999/xlink">
    <g id="Group">
        <linearGradient id="linearGradient1" x1="324.185" y1="67.853" x2="449.787362" y2="213.653653" gradientUnits="userSpaceOnUse">
            <stop offset="1e-05" stop-color="#ff5000" stop-opacity="1"/>
            <stop offset="1" stop-color="#9b0000" stop-opacity="1"/>
        </linearGradient>
        <path id="Path" fill="url(#linearGradient1)" fill-rule="evenodd" stroke="none" d="M 522.370972 145.167007 C 522.370972 145.167007 489.118988 82.067993 407.515991 37.210999 C 350.371002 5.79599 294.122986 7.975006 262.303986 16.066986 C 212.119995 28.82901 170.199997 57.216003 170.199997 57.216003 C 170.199997 57.216003 174.968994 79.794998 202.895004 72.955002 C 234.384003 65.242996 294.950012 34.39801 351.531006 60.399994 C 383.938995 75.294998 395.375 132.798996 328.908997 122.213989 C 303.593994 119.039001 285.372009 135.235001 290.463013 152.843994 C 292.733002 160.679993 298.832001 152.427994 323.641998 158.179993 C 329.855011 159.623001 365.947998 171.237 373.375 173.798996 C 393.747986 180.824005 404.470001 185.647003 430.542999 180.524002 C 474.601013 171.869003 499.661011 139.811005 522.370972 145.167007 Z"/>
        <linearGradient id="linearGradient2" x1="192.714" y1="74.9489" x2="359.321838" y2="75.598904" gradientUnits="userSpaceOnUse">
            <stop offset="1e-05" stop-color="#ff5000" stop-opacity="1"/>
            <stop offset="1" stop-color="#9b0000" stop-opacity="1"/>
        </linearGradient>
        <path id="path1" fill="url(#linearGradient2)" fill-rule="evenodd" stroke="none" d="M 359.330994 72.950989 C 356.403015 70.311005 353.046997 68.001999 349.420013 66.264008 C 335.338989 59.518005 320.252991 56.195007 303.306 56.108002 C 275.065002 55.959 248.126007 64.980011 226.479004 72.230011 C 217.910004 75.097992 210.507996 77.57901 204.039993 79.162994 C 200.093994 80.130997 196.326996 80.608002 192.839996 80.589996 C 192.791 80.589996 192.740005 80.588989 192.692001 80.587006 C 195.498993 86.358002 203.320999 96.821991 222.528 94.014999 C 249.988998 90 276.804993 75.119003 314.84201 71 C 330.253998 69.332001 345.84201 70.645996 359.330994 72.950989 Z"/>
        <linearGradient id="linearGradient3" x1="171.792" y1="116.869" x2="395.474115" y2="105.32594" gradientUnits="userSpaceOnUse">
            <stop offset="1e-05" stop-color="#ff2800" stop-opacity="1"/>
            <stop offset="1" stop-color="#9b0000" stop-opacity="1"/>
        </linearGradient>
        <path id="path2" fill="url(#linearGradient3)" fill-rule="evenodd" stroke="none" d="M 346.764008 91.522003 C 333.485992 91.45401 321.136993 93.044006 316.471985 94.05899 C 305.457001 96.462006 295.136993 100.328003 285.161011 104.06601 C 273.929993 108.274002 263.320007 112.247009 252.645004 113.824997 C 256.023987 118.968002 263.255005 125.401001 277.825012 123.272003 C 300.640015 119.936996 324.024994 93.807007 369.085999 100.43399 C 369.778992 99.190002 370.256989 97.869995 370.501007 96.473999 C 370.632996 95.710999 370.678009 94.919006 370.682007 94.115997 C 364.278992 92.472 356.15799 91.571991 346.764008 91.522003 Z"/>
        <linearGradient id="linearGradient4" x1="225.866" y1="91.9889" x2="369.424722" y2="92.54898" gradientUnits="userSpaceOnUse">
            <stop offset="1e-05" stop-color="#ff3900" stop-opacity="1"/>
            <stop offset="1" stop-color="#9b0000" stop-opacity="1"/>
        </linearGradient>
        <path id="path3" fill="url(#linearGradient4)" fill-rule="evenodd" stroke="none" d="M 330.024994 76.598999 C 324.960999 76.571991 320.023987 76.815002 315.355988 77.320999 C 294.36499 79.593994 277.134003 85.136002 260.471985 90.494995 C 248.570999 94.324005 237.283005 97.932007 225.835007 99.875 C 230.276993 104.837997 238.171997 109.549011 251.817001 107.553009 C 271.346985 104.699997 291.657013 93.014999 315.449005 87.822998 C 322.942993 86.188004 349.730988 83.05899 369.445007 87.328003 C 368.647003 85.100998 367.480011 82.855011 366.027008 80.669998 C 355.372986 78.450989 342.872009 76.666 330.024994 76.598999 Z"/>
        <linearGradient id="linearGradient5" x1="233.664" y1="232.148" x2="108.061497" y2="86.346488" gradientUnits="userSpaceOnUse">
            <stop offset="1e-05" stop-color="#158060" stop-opacity="1"/>
            <stop offset="1" stop-color="#00ff90" stop-opacity="1"/>
        </linearGradient>
        <path id="path4" fill="url(#linearGradient5)" fill-rule="evenodd" stroke="none" d="M 35.473 154.834 C 35.473 154.834 68.728996 217.931 150.332001 262.787994 C 207.475006 294.200989 263.721985 292.026001 295.539001 283.93399 C 345.725006 271.170013 387.64801 242.783005 387.64801 242.783005 C 387.64801 242.783005 382.878998 220.205994 354.947998 227.046005 C 323.463013 234.757996 262.89801 265.601013 206.315994 239.600998 C 173.908005 224.705994 162.470993 167.201996 228.938995 177.785004 C 254.253998 180.960007 272.475006 164.764008 267.381012 147.156998 C 265.113007 139.320999 259.014008 147.572998 234.203995 141.819 C 227.994003 140.376007 191.901001 128.761993 184.470993 126.199997 C 164.095001 119.173004 153.376007 114.354004 127.304001 119.47699 C 83.244003 128.132004 58.185001 160.190002 35.473 154.834 Z"/>
        <linearGradient id="linearGradient6" x1="365.134" y1="225.05" x2="198.525162" y2="224.399992" gradientUnits="userSpaceOnUse">
            <stop offset="1e-05" stop-color="#15803d" stop-opacity="1"/>
            <stop offset="1" stop-color="#009e75" stop-opacity="1"/>
        </linearGradient>
        <path id="path5" fill="url(#linearGradient6)" fill-rule="evenodd" stroke="none" d="M 198.514999 227.048004 C 201.442993 229.690002 204.800995 231.998993 208.425995 233.737 C 222.507996 240.483002 237.593994 243.802002 254.537994 243.893005 C 282.781006 244.042007 309.720001 235.018997 331.365997 227.770996 C 339.936005 224.897995 347.337006 222.421997 353.806 220.835999 C 357.75 219.869995 361.519012 219.389008 365.005005 219.410995 C 365.057007 219.410995 365.102997 219.412003 365.154999 219.416 C 362.346985 213.643005 354.527008 203.175003 335.317993 205.983994 C 307.856995 209.996994 281.040009 224.882004 243.003998 229.001007 C 227.591995 230.669006 212.003998 229.350998 198.514999 227.048004 Z"/>
        <linearGradient id="linearGradient7" x1="386.056" y1="183.13" x2="162.369882" y2="194.673216" gradientUnits="userSpaceOnUse">
            <stop offset="1e-05" stop-color="#00b34d" stop-opacity="1"/>
            <stop offset="1" stop-color="#007c67" stop-opacity="1"/>
        </linearGradient>
        <path id="path6" fill="url(#linearGradient7)" fill-rule="evenodd" stroke="none" d="M 211.084 208.477005 C 224.360001 208.546997 236.709 206.959 241.375 205.942993 C 252.389008 203.537003 262.709015 199.671005 272.686005 195.929993 C 283.915985 191.727005 294.524994 187.753998 305.200989 186.169998 C 301.821991 181.031006 294.59201 174.598007 280.022003 176.727005 C 257.208008 180.061996 233.819 206.195007 188.761993 199.567001 C 188.069 200.811005 187.587006 202.130997 187.345001 203.526993 C 187.210999 204.292007 187.167999 205.080002 187.162003 205.882996 C 193.567001 207.526993 201.684998 208.427994 211.084 208.477005 Z"/>
        <linearGradient id="linearGradient8" x1="331.98" y1="208.01" x2="188.423278" y2="207.449925" gradientUnits="userSpaceOnUse">
            <stop offset="1e-05" stop-color="#15803d" stop-opacity="1"/>
            <stop offset="1" stop-color="#007c67" stop-opacity="1"/>
        </linearGradient>
        <path id="path7" fill="url(#linearGradient8)" fill-rule="evenodd" stroke="none" d="M 227.822998 223.401993 C 232.886002 223.429001 237.824005 223.186005 242.490005 222.679993 C 263.484985 220.406998 280.712006 214.865005 297.372986 209.503998 C 309.27301 205.675003 320.561005 202.069 332.010986 200.123993 C 327.571014 195.158997 319.675995 190.451996 306.028015 192.445999 C 286.498993 195.300995 266.192993 206.985992 242.397995 212.175995 C 234.904999 213.807999 208.117004 216.942001 188.401993 212.673004 C 189.201004 214.897995 190.365997 217.145004 191.815994 219.330994 C 202.473999 221.550003 214.973999 223.332993 227.822998 223.401993 Z"/>
    </g>
    <g id="g1">
        <path id="path8" fill="#f3f4ff" stroke="none" d="M 598.817017 47.186996 L 644.317017 47.186996 L 644.317017 263.604004 L 598.817017 263.604004 Z"/>
        <path id="path9" fill="#f3f4ff" stroke="none" d="M 764.484009 265.937988 C 746.594971 265.937988 730.893982 262.437988 717.380005 255.438004 C 703.866028 248.438004 693.414978 238.860992 686.026001 226.707993 C 678.637024 214.556 674.942017 200.701004 674.942017 185.145996 C 674.942017 169.395996 678.588013 155.444 685.880005 143.292007 C 693.171997 131.139008 703.137024 121.610992 715.776001 114.708008 C 728.414978 107.806 742.705994 104.354004 758.651001 104.354004 C 774.012024 104.354004 787.866028 107.610992 800.213013 114.125 C 812.559998 120.639008 822.330994 129.972 829.526001 142.125 C 836.719971 154.278 840.317017 168.811996 840.317017 185.729004 C 840.317017 187.479004 840.219971 189.472 840.026001 191.707993 C 839.830994 193.944 839.637024 196.035004 839.442017 197.979004 L 711.984009 197.979004 L 711.984009 171.436996 L 815.526001 171.436996 L 798.026001 179.311996 C 798.026001 171.145996 796.372986 164.048996 793.067017 158.020996 C 789.762024 151.992996 785.192017 147.278 779.359009 143.875 C 773.526001 140.472 766.719971 138.770996 758.942017 138.770996 C 751.164978 138.770996 744.309998 140.472 738.380005 143.875 C 732.448975 147.278 727.830994 152.042007 724.526001 158.167007 C 721.219971 164.292007 719.567017 171.535004 719.567017 179.895996 L 719.567017 186.895996 C 719.567017 195.451004 721.463013 202.985992 725.255005 209.5 C 729.046997 216.014008 734.393982 220.972 741.296997 224.375 C 748.198975 227.778 756.317017 229.479004 765.651001 229.479004 C 774.012024 229.479004 781.35199 228.214996 787.671997 225.686996 C 793.991028 223.160004 799.776001 219.367996 805.026001 214.311996 L 829.234009 240.561996 C 822.039978 248.729004 812.997986 255 802.109009 259.375 C 791.219971 263.75 778.679016 265.937012 764.484009 265.937012 Z"/>
        <path id="path10" fill="#f3f4ff" stroke="none" d="M 966.026001 104.354004 C 978.469971 104.354004 989.60199 106.833008 999.421997 111.791992 C 1009.241028 116.75 1016.969971 124.333008 1022.609009 134.542007 C 1028.248047 144.75 1031.067017 157.826004 1031.067017 173.770996 L 1031.067017 263.604004 L 985.567017 263.604004 L 985.567017 180.770996 C 985.567017 168.132004 982.796997 158.798996 977.255005 152.770996 C 971.713013 146.742996 963.887024 143.729004 953.776001 143.729004 C 946.580994 143.729004 940.116028 145.235992 934.380005 148.25 C 928.643982 151.264008 924.171997 155.882004 920.963013 162.104004 C 917.755005 168.326004 916.151001 176.298996 916.151001 186.020996 L 916.151001 263.604004 L 870.651001 263.604004 L 870.651001 106.686996 L 914.109009 106.686996 L 914.109009 150.145996 L 905.942017 137.020996 C 911.580994 126.520996 919.651001 118.450989 930.151001 112.811996 C 940.651001 107.174011 952.609009 104.354004 966.026001 104.354004 Z"/>
        <path id="path11" fill="#f3f4ff" stroke="none" d="M 1140.72998 265.937988 C 1125.952026 265.937988 1112.633057 262.583008 1100.771973 255.875 C 1088.911011 249.167007 1079.529053 239.785004 1072.625977 227.729004 C 1065.723022 215.673996 1062.271973 201.479004 1062.271973 185.145996 C 1062.271973 168.617996 1065.723022 154.326004 1072.625977 142.270996 C 1079.529053 130.214996 1088.911011 120.882004 1100.771973 114.270996 C 1112.633057 107.660004 1125.952026 104.354004 1140.72998 104.354004 C 1153.952026 104.354004 1165.521973 107.270996 1175.437988 113.104004 C 1185.35498 118.938004 1193.036011 127.785004 1198.47998 139.645996 C 1203.925049 151.507004 1206.646973 166.673996 1206.646973 185.145996 C 1206.646973 203.423996 1204.021973 218.542007 1198.771973 230.5 C 1193.521973 242.457993 1185.987061 251.354004 1176.167969 257.187988 C 1166.348022 263.020996 1154.536011 265.937988 1140.72998 265.937988 Z M 1148.60498 228.604004 C 1155.994019 228.604004 1162.702026 226.854004 1168.72998 223.354004 C 1174.758057 219.854004 1179.569946 214.847 1183.167969 208.332993 C 1186.765015 201.819 1188.562988 194.089996 1188.562988 185.145996 C 1188.562988 176.007004 1186.765015 168.229004 1183.167969 161.813004 C 1179.569946 155.395996 1174.758057 150.438004 1168.72998 146.938004 C 1162.702026 143.438004 1155.994019 141.688004 1148.60498 141.688004 C 1141.021973 141.688004 1134.215942 143.438004 1128.187988 146.938004 C 1122.161011 150.438004 1117.348022 155.395996 1113.750977 161.813004 C 1110.154053 168.229004 1108.35498 176.007004 1108.35498 185.145996 C 1108.35498 194.089996 1110.154053 201.819 1113.750977 208.332993 C 1117.348022 214.847 1122.161011 219.854004 1128.187988 223.354004 C 1134.215942 226.854004 1141.021973 228.604004 1148.60498 228.604004 Z M 1189.72998 263.604004 L 1189.72998 231.520996 L 1190.60498 184.854004 L 1187.687988 138.479004 L 1187.687988 47.186996 L 1233.187988 47.188004 L 1233.187988 263.604004 L 1189.72998 263.604004 Z"/>
        <path id="path12" fill="#f3f4ff" stroke="none" d="M 1275.189941 263.604004 L 1275.189941 106.688004 L 1320.689941 106.686996 L 1320.689941 263.604004 L 1275.189941 263.604004 Z M 1297.939941 84.813004 C 1289.578979 84.813004 1282.774048 82.382004 1277.524048 77.520996 C 1272.274048 72.660004 1269.649048 66.632004 1269.649048 59.436996 C 1269.649048 52.242996 1272.274048 46.214996 1277.524048 41.354004 C 1282.774048 36.493011 1289.578979 34.062988 1297.939941 34.062988 C 1306.302002 34.062012 1313.107056 36.346985 1318.357056 40.916992 C 1323.607056 45.485992 1326.232056 51.367996 1326.232056 58.561996 C 1326.232056 66.145996 1323.656006 72.416992 1318.503052 77.375 C 1313.349976 82.333008 1306.495972 84.813004 1297.939941 84.813004 Z"/>
        <path id="path13" fill="#f3f4ff" stroke="none" d="M 1427.150024 265.937988 C 1408.677979 265.937988 1394.28894 261.221985 1383.983032 251.792007 C 1373.677979 242.360992 1368.525024 228.313004 1368.525024 209.645996 L 1368.525024 71.979004 L 1414.025024 71.979004 L 1414.025024 209.063004 C 1414.025024 215.673996 1415.775024 220.778 1419.275024 224.375 C 1422.775024 227.972 1427.53894 229.770996 1433.56604 229.770996 C 1440.760986 229.770996 1446.885986 227.826004 1451.94104 223.938004 L 1464.19104 256.020996 C 1459.525024 259.325989 1453.93396 261.806 1447.421021 263.458008 C 1440.906982 265.110992 1434.150024 265.937988 1427.150024 265.937988 Z M 1344.31604 145.188004 L 1344.31604 110.188004 L 1453.108032 110.188004 L 1453.108032 145.188004 L 1344.31604 145.188004 Z"/>
    </g>
</svg>
